<svg width="551" height="425" viewBox="0 0 551 425" fill="none" xmlns="http://www.w3.org/2000/svg">
<path d="M525 -5C525 -81.4243 387.24 -83.374 311.5 -84.5C250.406 -85.4083 98.4624 -184 32.5002 -184C-42.8213 -184 -100.294 -113.227 -140.5 -84.5C-179.154 -56.8813 -208 34.3227 -208 102C-208 166.646 -88.9299 176.551 -44.4432 239C6.08458 309.929 78.4355 363.5 157 363.5C241.763 363.5 285.553 240.695 342 135.5C383.937 57.3463 525 53.8539 525 -5Z" fill="#000098" fill-opacity="0.3"/>
<path d="M182.5 424.5C224.607 424.5 256.614 394.004 285.199 350.175C313.785 306.345 338.807 249.416 367.06 196.764C377.599 177.123 394.355 162.194 413.517 149.931C432.676 137.67 454.276 128.053 474.523 119.056C494.793 110.049 513.684 101.674 527.515 91.8838C541.339 82.0985 550 70.976 550 56.5C550 37.5721 541.481 23.258 527.484 12.3896C513.469 1.50648 493.962 -5.91644 472.039 -11C428.193 -21.1668 374.875 -21.9368 336.993 -22.5C321.62 -22.7286 300.592 -29.0941 276.726 -38.4648C252.843 -47.8419 226.046 -60.2583 199.117 -72.6367C172.181 -85.0187 145.11 -97.3633 120.653 -106.613C96.183 -115.869 74.3923 -122 58 -122C20.4982 -122 -12.594 -104.381 -41.3711 -83.1201C-55.7569 -72.4919 -69.0501 -60.9652 -81.2695 -50.29C-93.4807 -39.6221 -104.633 -29.7922 -114.709 -22.5928C-133.904 -8.87771 -150.737 20.7009 -162.772 55.3916C-174.8 90.0585 -182 129.724 -182 163.5C-182 179.483 -174.649 192.099 -162.86 203.03C-151.057 213.975 -134.839 223.198 -117.174 232.38C-99.5301 241.551 -80.4441 250.68 -63.0049 261.413C-45.5604 272.149 -29.7134 284.52 -18.5361 300.21C31.9458 371.075 104.165 424.5 182.5 424.5Z" stroke="black"/>
</svg>
