<svg width="692" height="537" viewBox="0 0 692 537" fill="none" xmlns="http://www.w3.org/2000/svg">
<path d="M133.579 347.926C84.9454 406.879 189.972 496.048 247.68 545.114C294.23 584.693 348.698 757.436 399.581 799.412C457.684 847.344 547.055 829.323 596.35 832.749C643.743 836.042 724.033 784.044 767.1 731.838C808.238 681.97 722.692 598.559 728.115 522.076C734.275 435.208 712.554 347.843 651.949 297.848C586.564 243.908 474.637 310.773 364.152 355.999C282.068 389.599 171.031 302.526 133.579 347.926Z" fill="#000098" fill-opacity="0.3"/>
<path d="M671.097 234.566C638.616 207.771 594.519 210.927 544.578 226.546C494.636 242.166 439.107 270.158 383.807 292.794C363.178 301.238 340.753 302.092 318.168 299.357C295.586 296.623 272.804 290.297 251.46 284.352C230.093 278.401 210.191 272.84 193.292 271.591C176.401 270.342 162.642 273.41 153.43 284.577C141.385 299.177 138.848 315.64 142.728 332.931C146.614 350.245 156.938 368.384 170.614 386.257C197.967 422.001 238.606 456.525 267.47 481.065C279.183 491.025 291.353 509.316 303.8 531.732C316.256 554.164 329.026 580.794 341.921 607.479C354.821 634.172 367.847 660.921 380.826 683.62C393.813 706.331 406.72 724.928 419.365 735.359C448.294 759.224 485.033 766.691 520.761 768.603C538.621 769.559 556.211 769.127 572.43 768.668C588.638 768.209 603.496 767.723 615.85 768.582C639.385 770.217 671.192 758.112 702.552 739.011C733.891 719.923 764.686 693.907 786.18 667.852C796.351 655.524 798.709 641.114 796.571 625.179C794.431 609.226 787.789 591.79 780.006 573.466C772.232 555.164 763.318 535.976 756.696 516.599C750.072 497.216 745.719 477.59 747.082 458.374C753.236 371.584 731.524 284.415 671.097 234.566Z" stroke="black"/>
</svg>
