<svg width="131" height="125" viewBox="0 0 131 125" fill="none" xmlns="http://www.w3.org/2000/svg">
<path d="M2.62006 34.715H129.035V55.3475L122.485 58.6225L121.503 119.865L116.918 123.14H15.0651L8.18756 118.882V58.6225L2.62006 53.71V34.715Z" fill="#91E456" fill-opacity="0.5"/>
<rect x="53.0549" y="34.715" width="24.235" height="87.115" fill="#91E456"/>
<path d="M63.2075 29.8025C63.2075 35.9521 51.4035 33.405 42.9025 33.405C34.4014 33.405 21.2875 19.5771 21.2875 13.4275C21.2875 7.27777 26.855 1.30996 37.0075 1.30996C45.5085 1.30996 58.95 15.72 63.2075 29.8025Z" fill="#91E456"/>
<path d="M68.12 29.8025C68.12 35.9521 79.9239 33.405 88.425 33.405C96.926 33.405 110.04 19.5771 110.04 13.4275C110.04 7.27777 104.472 1.30996 94.32 1.30996C85.8189 1.30996 72.3775 15.72 68.12 29.8025Z" fill="#91E456"/>
<path d="M31.3559 0.25518C27.3801 0.814613 22.9694 3.61179 21.1679 6.65759C19.3042 9.88988 19.4906 15.2356 21.6027 19.5246C23.4043 23.2541 28.0013 28.4133 31.5423 30.7132L34.3378 32.4537H20.0497C6.87975 32.4537 5.69943 32.578 3.77364 33.6969C0.481159 35.686 -0.202186 38.2967 0.0463028 47.1233C0.23267 54.2094 0.356914 54.831 1.7236 56.3229C2.59332 57.2553 4.14637 58.1876 5.14033 58.4363L7.06612 58.9336L7.37673 89.0808C7.68734 116.928 7.74946 119.352 8.80554 120.969C11.1662 124.574 9.61313 124.449 65.461 124.449C121.495 124.449 119.57 124.574 122.241 120.844C123.545 118.979 123.545 118.669 123.545 89.2051V59.493L126.217 58.3741C130.379 56.6958 131 55.0797 131 46.0044C131 37.4886 130.565 36.0589 127.335 33.8834C125.285 32.5159 124.788 32.4537 110.935 32.4537H96.5843L99.3798 30.7132C107.207 25.6783 112.55 15.9815 111.059 9.3926C110.189 5.60088 108.45 3.54962 104.598 1.62268C101.492 0.130859 100.684 0.00654602 96.0252 0.25518C92.1736 0.441658 90.0615 0.938934 87.3902 2.24428C77.8855 6.78191 70.8036 15.7328 67.8838 27.0458C67.0141 30.4646 66.2686 31.7699 65.1504 31.8321C64.9019 31.8321 64.405 30.1538 64.0322 28.1025C62.7277 21.9488 58.1927 13.7437 53.4093 8.95747C46.4516 1.99564 39.1212 -0.925842 31.3559 0.25518ZM41.047 3.67394C49.5577 6.96838 56.5776 14.9869 60.4291 25.6162C63.1004 32.8888 63.5974 32.4537 52.5396 32.4537C41.7303 32.4537 38.4379 31.7699 33.2196 28.4133C29.1195 25.8027 25.6407 21.9488 23.777 17.9084C20.733 11.3817 22.5346 6.53326 29.1195 3.4253C31.4802 2.36859 38.003 2.49291 41.047 3.67394ZM101.181 3.05235C102.362 3.23882 104.412 4.54417 105.903 6.036C108.388 8.39805 108.636 8.89532 108.636 11.6925C108.636 19.8354 100.25 28.9728 90.3099 31.5835C87.4523 32.3915 69.499 32.8888 69.499 32.1429C69.499 30.5268 71.2384 24.4973 72.6051 21.5137C76.5188 12.8114 84.1598 5.53872 91.863 3.17667C93.8509 2.61723 98.5722 2.49291 101.181 3.05235ZM51.4835 45.5071V56.0742H28.3741C7.74946 56.0742 5.20245 55.9499 4.14637 55.0175C3.15242 54.1473 3.02817 52.9663 3.02817 45.7558C3.02817 33.9455 0.667526 34.9401 28.871 34.9401H51.4835V45.5071ZM76.8294 78.5759L76.9537 121.963H65.461H53.9684V78.4516V34.9401L65.3368 35.0644L76.643 35.2509L76.8294 78.5759ZM126.776 36.8048L128.639 38.6696L128.391 46.4395C128.205 53.2771 128.08 54.2716 126.962 55.0797C125.906 55.8878 122.241 56.0121 102.61 56.0742H79.4385V45.5071V34.9401H102.175H124.912L126.776 36.8048ZM51.4835 90.5726V121.963H32.4741H13.4647L11.6632 120.16L9.86162 118.358V88.77V59.1822H30.6726H51.4835V90.5726ZM121.06 88.77V118.358L119.259 120.16L117.457 121.963H98.448H79.4385V90.5726V59.1822H100.25H121.06V88.77Z" fill="#286000"/>
</svg>
