<svg width="125" height="80" viewBox="0 0 125 80" fill="none" xmlns="http://www.w3.org/2000/svg">
<path d="M13.4375 56.4579V44.8954L44.6875 40.5204L58.125 38.3329L113.125 28.9579L113.75 43.0204L110.312 45.8329L94.375 46.4579H44.6875L45.3125 56.4579H13.4375Z" fill="#91E456" fill-opacity="0.5"/>
<path d="M7.8125 46.1445L3.4375 44.8945L0.625 41.4581L1.875 24.582L5.3125 18.957L10.625 16.7695L95.3125 3.01953L114.062 1.45703L120 7.70703L122.187 18.957V26.7695C113.958 27.6029 92.9375 32.832 85.9375 33.332C78.9375 33.832 31.875 40.9362 7.8125 46.1445Z" fill="#91E456"/>
<path d="M9.67033 70.4759L5.35089 69.5803L3.96455 67.2094L4.4902 60.3119L5.35089 57.4577L13.4831 57.4577L98.3977 57.6994L115.312 57.6994L122.5 58.0394L124.38 63.9579L123.437 69.5805C115.204 69.3306 95.0062 70.9478 88.0092 70.6411C81.0123 70.3344 33.842 69.9583 9.67033 70.4759Z" fill="#91E456"/>
<path d="M97.8103 1.8197C88.7297 3.37637 72.4886 5.9708 22.831 14.0136C7.26442 16.5561 6.64176 16.7118 4.1511 18.943C0.570776 22.212 0 24.1838 0 33.7832C0 41.2552 0.103777 42.4486 1.03777 43.9015C2.64633 46.5997 4.72187 47.3261 9.28808 46.9629L13.2316 46.5997L13.1278 51.1659L13.076 55.7321L9.08053 55.9916C3.63221 56.3548 3.11332 56.9775 3.11332 63.6192C3.11332 68.0816 3.2171 68.6005 4.41054 69.7421L5.65587 71.0393H63.6675C114.934 71.0393 121.835 70.9355 122.821 70.261C125.726 68.1854 125.726 58.8454 122.821 56.7699C121.835 56.0953 116.957 55.9916 83.6965 55.9916H45.6621V51.581V47.1705H78.5595H111.457L113.066 45.8214L114.674 44.4723V37.0003V29.5283H115.971C116.646 29.5283 118.41 29.2689 119.863 28.9575C124.222 28.0235 124.274 27.7122 122.457 16.8156C121.575 11.7305 120.434 6.74914 119.863 5.65948C117.995 2.02726 114.259 -0.100182 110.004 0.00360107C109.018 0.0554886 103.518 0.833817 97.8103 1.8197ZM115.816 3.94714C116.646 4.72548 117.684 5.9708 118.047 6.69725C118.721 8.04636 121.42 22.5752 121.42 25.014C121.42 26.7263 123.651 26.2074 99.8858 30.0472C92.777 31.1887 77.6774 33.6794 66.4176 35.4955C17.1233 43.5902 7.62764 45.0949 6.38231 45.0949C5.65587 45.0949 4.46243 44.4204 3.58032 43.5902L2.07555 42.0854V34.0945C2.07555 25.4291 2.59444 23.3535 5.34454 20.6034C7.10876 18.8392 8.56164 18.4241 18.4205 16.8674C58.3229 10.4851 84.9937 6.12647 97.0319 4.05092C110.627 1.71593 113.481 1.71593 115.816 3.94714ZM112.599 36.7408C112.599 42.1373 112.443 43.642 111.768 44.2647C111.042 44.9912 107.306 45.0949 78.4039 45.0949H45.8177L45.8696 43.0194C45.8696 41.8778 46.0253 40.9438 46.2329 40.9438C46.3885 40.9438 48.6197 40.5806 51.1623 40.1655C53.7048 39.7504 65.2241 37.8824 76.7953 35.9625C88.3665 34.0945 100.975 32.019 104.815 31.3444C108.655 30.7217 111.976 30.151 112.235 30.0991C112.443 30.0472 112.599 33.0567 112.599 36.7408ZM43.5865 48.7271V55.9916H29.4209H15.3072V50.9584L15.3591 45.9251L27.6567 44.0053C34.4541 42.9156 40.3694 41.9297 40.8883 41.8259C43.6384 41.0995 43.5865 40.8919 43.5865 48.7271ZM121.731 58.9492C122.613 60.1427 122.717 67.459 121.835 68.3411C120.953 69.2232 6.69365 69.2232 5.81154 68.3411C5.03321 67.5628 4.98132 60.454 5.70776 59.053C6.22665 58.0671 7.42009 58.0671 63.6675 58.0671C117.684 58.0671 121.108 58.119 121.731 58.9492Z" fill="#286000"/>
</svg>
