<svg width="131" height="123" viewBox="0 0 131 123" fill="none" xmlns="http://www.w3.org/2000/svg">
<path d="M1.30615 13.2391C1.30615 6.61165 6.67874 1.23907 13.3062 1.23907H61.6281C68.0625 1.23907 73.3518 6.31401 73.6178 12.7429L74.6325 37.264C74.888 43.4397 69.9504 48.5858 63.7695 48.5858C57.7649 48.5858 52.8972 53.4535 52.8972 59.4581V60.6111C52.8972 67.4171 47.2429 72.8607 40.4418 72.6025L12.8508 71.5547C6.40518 71.3099 1.30615 66.0136 1.30615 59.5633V13.2391Z" fill="#91E456"/>
<rect x="51.5911" y="48.2593" width="76.407" height="73.7956" rx="12" fill="#91E456" fill-opacity="0.5"/>
<path d="M6.44099 1.04288C3.74191 2.45377 2.45371 3.74198 1.16551 6.25706C0.0613427 8.40408 0 10.2444 0 36.3767V64.2265L1.41088 66.9257C2.33102 68.6433 3.86459 70.2382 5.58219 71.281L8.28127 72.9986H29.5672L50.8531 73.06L51.0371 94.1008L51.2212 115.142L52.9388 117.35C56.4353 121.951 55.0244 121.767 89.131 121.951C109.742 122.073 120.416 121.889 122.133 121.46C123.544 121.092 125.569 119.804 126.918 118.454C130.599 114.773 130.783 112.995 130.537 81.8934C130.353 52.2646 130.476 53.2461 126.489 49.5041C123.176 46.3756 121.152 46.1302 97.4736 46.1302L75.7583 46.0689L75.4516 26.5617C75.2675 13.3729 74.8995 6.68646 74.4087 5.82766C73.3046 3.92602 70.4214 1.34959 68.5198 0.674812C67.3543 0.245415 56.742 3.8147e-05 37.5417 3.8147e-05C12.0232 0.0613785 8.0359 0.184067 6.44099 1.04288ZM68.5812 3.6193C72.8138 5.76632 72.9978 6.80915 72.9978 27.5432V45.8849L65.8207 46.1302C60.6066 46.3143 58.0916 46.1916 56.9261 45.5782C52.8774 43.6152 48.5834 45.3328 47.2339 49.3814C46.3751 51.9579 46.8658 53.7368 48.9515 56.0065C50.4851 57.6015 50.6077 58.0922 50.6077 64.1039V70.5449H30.1806C10.7963 70.5449 9.63081 70.4836 7.29978 69.2567C5.4595 68.3366 4.47802 67.2937 3.61922 65.3307C2.45371 62.7543 2.45371 61.2207 2.57639 35.3338C2.76042 8.83348 2.82177 8.03602 4.04862 6.31841C6.87039 2.39243 6.62501 2.45377 37.9098 2.45377C64.5939 2.45377 66.4342 2.51511 68.5812 3.6193ZM123.299 49.9949C124.219 50.4856 125.691 51.8965 126.489 53.1847L127.9 55.5158V84.0405C127.9 111.461 127.838 112.626 126.673 114.651C125.998 115.816 124.648 117.289 123.728 118.025C122.011 119.313 121.397 119.313 90.9099 119.497C60.7293 119.62 59.7478 119.62 57.7849 118.393C56.6807 117.718 55.2698 116.307 54.595 115.203C53.4295 113.24 53.3682 112.013 53.3682 84.0405C53.3682 61.9568 53.5522 54.5343 54.1656 53.3688C54.595 52.5713 55.8832 51.2217 56.9874 50.4856L59.073 49.0747H90.2965C116.613 49.0747 121.765 49.1974 123.299 49.9949Z" fill="#286000"/>
<path d="M18.6778 15.6166C13.4028 18.9678 15.5128 27.5942 21.5946 27.5942C27.7385 27.5942 30.9035 21.3882 27.0558 17.044C24.8838 14.6236 21.1602 14.003 18.6778 15.6166Z" fill="#286000"/>
<path d="M49.8837 15.6274C49.0754 16.187 48.0806 17.555 47.5831 18.7363C44.8473 25.265 52.6817 30.6745 58.0289 25.8868C59.7699 24.3323 60.0807 23.6484 60.0807 21.1613C60.0807 18.6742 59.7699 17.9902 58.0289 16.4358C55.6662 14.3217 52.2464 14.0108 49.8837 15.6274Z" fill="#286000"/>
<path d="M17.5001 46.4659C16.0512 47.9148 15.6732 48.8597 15.6732 50.9386C15.6732 54.2143 16.4921 55.7262 18.8229 56.9231C21.8467 58.498 25.1224 57.994 27.5162 55.5372C28.9021 54.1513 29.154 50.1196 28.0201 47.8518C26.0673 44.1351 20.5868 43.4421 17.5001 46.4659Z" fill="#286000"/>
<path d="M69.7673 63.8498C64.3455 68.1993 68.4565 76.4214 75.1891 74.634C82.0409 72.7274 80.6705 62.7774 73.5804 62.7774C72.0313 62.7774 70.4823 63.1944 69.7673 63.8498Z" fill="#286000"/>
<path d="M102.678 64.512C98.2479 68.4504 101.263 75.0348 107.416 75.0348C113.262 75.0348 115.724 68.8196 111.539 64.3889C109.262 61.9889 105.447 62.0505 102.678 64.512Z" fill="#286000"/>
<path d="M70.1785 94.2642C65.9391 96.6526 66.4168 103.161 71.0144 105.131C75.3135 106.923 79.6723 103.997 79.6723 99.2798C79.6723 94.6224 74.4775 91.8758 70.1785 94.2642Z" fill="#286000"/>
<path d="M102.911 95.0165C100.575 96.9838 99.9597 99.443 101.189 102.333C103.157 107.128 109.55 107.681 112.501 103.316C116.62 97.1682 108.567 90.2211 102.911 95.0165Z" fill="#286000"/>
</svg>
