<svg width="672" height="470" viewBox="0 0 672 470" fill="none" xmlns="http://www.w3.org/2000/svg">
<path d="M133.579 121.53C84.9454 62.5773 189.972 -26.5918 247.68 -75.6578C294.23 -115.237 348.698 -287.98 399.581 -329.956C457.684 -377.887 547.055 -359.867 596.35 -363.292C643.743 -366.585 724.033 -314.588 767.1 -262.382C808.238 -212.514 722.692 -129.102 728.115 -52.6201C734.275 34.248 712.554 121.613 651.949 171.609C586.564 225.548 474.637 158.683 364.152 113.458C282.068 79.8573 171.031 166.93 133.579 121.53Z" fill="#91E456" fill-opacity="0.3"/>
<path d="M671.097 234.891C638.616 261.686 594.519 258.53 544.578 242.91C494.636 227.291 439.107 199.299 383.807 176.663C363.178 168.219 340.753 167.365 318.168 170.099C295.586 172.833 272.804 179.16 251.46 185.105C230.093 191.056 210.191 196.617 193.292 197.866C176.401 199.115 162.642 196.047 153.43 184.88C141.385 170.279 138.848 153.816 142.728 136.526C146.614 119.211 156.938 101.072 170.614 83.1999C197.967 47.4558 238.606 12.932 267.47 -11.6088C279.183 -21.5681 291.353 -39.8594 303.8 -62.2758C316.256 -84.7073 329.026 -111.337 341.921 -138.023C354.821 -164.715 367.847 -191.465 380.826 -214.163C393.813 -236.874 406.72 -255.471 419.365 -265.902C448.294 -289.767 485.033 -297.234 520.761 -299.146C538.621 -300.102 556.211 -299.67 572.43 -299.211C588.638 -298.753 603.496 -298.267 615.85 -299.125C639.385 -300.76 671.192 -288.655 702.552 -269.554C733.891 -250.466 764.686 -224.451 786.18 -198.396C796.351 -186.067 798.709 -171.657 796.571 -155.723C794.431 -139.769 787.789 -122.334 780.006 -104.01C772.232 -85.7074 763.318 -66.5198 756.696 -47.1427C750.072 -27.7598 745.719 -8.13308 747.082 11.083C753.236 97.8724 731.524 185.041 671.097 234.891Z" stroke="black"/>
</svg>
