<svg width="571" height="392" viewBox="0 0 571 392" fill="none" xmlns="http://www.w3.org/2000/svg">
<path d="M545 430C545 506.424 407.24 508.374 331.5 509.5C270.406 510.408 118.462 609 52.5002 609C-22.8213 609 -80.294 538.227 -120.5 509.5C-159.154 481.881 -188 390.677 -188 323C-188 258.354 -68.9299 248.449 -24.4432 186C26.0846 115.071 98.4355 61.5 177 61.5C261.763 61.5 305.553 184.305 362 289.5C403.937 367.654 545 371.146 545 430Z" fill="#91E456" fill-opacity="0.3"/>
<path d="M202.5 0.5C244.607 0.5 276.614 30.996 305.199 74.8252C333.785 118.655 358.807 175.584 387.06 228.236C397.599 247.877 414.355 262.806 433.517 275.069C452.676 287.33 474.276 296.947 494.523 305.944C514.793 314.951 533.684 323.326 547.515 333.116C561.339 342.902 570 354.024 570 368.5C570 387.428 561.481 401.742 547.484 412.61C533.469 423.494 513.962 430.916 492.039 436C448.193 446.167 394.875 446.937 356.993 447.5C341.62 447.729 320.592 454.094 296.726 463.465C272.843 472.842 246.046 485.258 219.117 497.637C192.181 510.019 165.11 522.363 140.653 531.613C116.183 540.869 94.3923 547 78 547C40.4982 547 7.40605 529.381 -21.3711 508.12C-35.7569 497.492 -49.0501 485.965 -61.2695 475.29C-73.4807 464.622 -84.6329 454.792 -94.709 447.593C-113.904 433.878 -130.737 404.299 -142.772 369.608C-154.8 334.942 -162 295.276 -162 261.5C-162 245.517 -154.649 232.901 -142.86 221.97C-131.057 211.025 -114.839 201.802 -97.1738 192.62C-79.5301 183.449 -60.4441 174.32 -43.0049 163.587C-25.5604 152.851 -9.71339 140.48 1.46387 124.79C51.9458 53.9251 124.165 0.500111 202.5 0.5Z" stroke="black"/>
</svg>
