<svg width="672" height="470" viewBox="0 0 672 470" fill="none" xmlns="http://www.w3.org/2000/svg">
<path d="M133.578 121.53C84.9452 62.5773 189.972 -26.5918 247.68 -75.6578C294.23 -115.237 348.698 -287.98 399.581 -329.956C457.683 -377.887 547.054 -359.867 596.35 -363.292C643.743 -366.585 724.033 -314.588 767.1 -262.382C808.238 -212.514 722.691 -129.102 728.115 -52.6201C734.274 34.248 712.553 121.613 651.949 171.609C586.564 225.548 474.636 158.683 364.152 113.458C282.068 79.8573 171.031 166.93 133.578 121.53Z" fill="#91E456" fill-opacity="0.3"/>
<path d="M671.097 234.89C638.616 261.685 594.519 258.529 544.578 242.91C494.636 227.29 439.107 199.299 383.807 176.662C363.178 168.218 340.753 167.365 318.168 170.099C295.586 172.833 272.804 179.16 251.46 185.105C230.093 191.056 210.19 196.616 193.292 197.866C176.401 199.114 162.642 196.046 153.43 184.88C141.385 170.279 138.847 153.816 142.728 136.525C146.614 119.211 156.937 101.072 170.614 83.1996C197.966 47.4554 238.606 12.9316 267.469 -11.6092C279.183 -21.5684 291.352 -39.8597 303.8 -62.2762C316.256 -84.7077 329.025 -111.338 341.921 -138.023C354.82 -164.716 367.847 -191.465 380.826 -214.163C393.813 -236.875 406.72 -255.471 419.365 -265.903C448.294 -289.767 485.033 -297.234 520.761 -299.147C538.621 -300.103 556.21 -299.67 572.43 -299.212C588.638 -298.753 603.496 -298.267 615.85 -299.126C639.385 -300.761 671.192 -288.656 702.552 -269.555C733.89 -250.466 764.686 -224.451 786.18 -198.396C796.35 -186.067 798.709 -171.658 796.571 -155.723C794.431 -139.77 787.789 -122.334 780.006 -104.01C772.231 -85.7078 763.318 -66.5202 756.696 -47.1431C750.071 -27.7602 745.719 -8.13345 747.082 11.0827C753.236 97.872 731.524 185.041 671.097 234.89Z" stroke="black"/>
</svg>
