<svg width="570" height="492" viewBox="0 0 570 492" fill="none" xmlns="http://www.w3.org/2000/svg">
<path d="M544 430C544 506.424 406.24 508.374 330.5 509.5C269.406 510.408 117.462 609 51.5002 609C-23.8213 609 -81.294 538.227 -121.5 509.5C-160.154 481.881 -189 390.677 -189 323C-189 258.354 -69.9299 248.449 -25.4432 186C25.0846 115.071 97.4355 61.5 176 61.5C260.763 61.5 304.553 184.305 361 289.5C402.937 367.654 544 371.146 544 430Z" fill="#91E456" fill-opacity="0.3"/>
<path d="M201.5 0.5C243.607 0.5 275.614 30.996 304.199 74.8252C332.785 118.655 357.807 175.584 386.06 228.236C396.599 247.877 413.355 262.806 432.517 275.069C451.676 287.33 473.276 296.947 493.523 305.944C513.793 314.951 532.684 323.326 546.515 333.116C560.339 342.902 569 354.024 569 368.5C569 387.428 560.481 401.742 546.484 412.61C532.469 423.494 512.962 430.916 491.039 436C447.193 446.167 393.875 446.937 355.993 447.5C340.62 447.729 319.592 454.094 295.726 463.465C271.843 472.842 245.046 485.258 218.117 497.637C191.181 510.019 164.11 522.363 139.653 531.613C115.183 540.869 93.3923 547 77 547C39.4982 547 6.40605 529.381 -22.3711 508.12C-36.7569 497.492 -50.0501 485.965 -62.2695 475.29C-74.4807 464.622 -85.6329 454.792 -95.709 447.593C-114.904 433.878 -131.737 404.299 -143.772 369.608C-155.8 334.942 -163 295.276 -163 261.5C-163 245.517 -155.649 232.901 -143.86 221.97C-132.057 211.025 -115.839 201.802 -98.1738 192.62C-80.5301 183.449 -61.4441 174.32 -44.0049 163.587C-26.5604 152.851 -10.7134 140.48 0.463867 124.79C50.9458 53.9251 123.165 0.500111 201.5 0.5Z" stroke="black"/>
</svg>
