<svg width="20" height="25" viewBox="0 0 20 25" fill="none" xmlns="http://www.w3.org/2000/svg">
<path d="M7.50246 2.585C7.19873 1.62771 6.46332 1 5.64551 1H2.89474C1.8483 1 1 2.06921 1 3.38847C1 14.6022 8.21078 23.6929 17.1055 23.6929C18.1519 23.6929 19 22.6234 19 21.3041L19.0005 17.8356C19.0005 16.8046 18.5027 15.8776 17.7434 15.4946L15.1069 14.1656C14.4249 13.8216 13.6483 13.9764 13.0839 14.5693L12.4035 15.2848C11.6089 16.1197 10.4396 16.0533 9.7082 15.1311L7.79222 12.7134C7.06079 11.7913 7.00673 10.3184 7.66895 9.31656L8.23633 8.45878C8.70661 7.74731 8.83049 6.76799 8.55766 5.90809L7.50246 2.585Z" stroke="#000098" stroke-width="2" stroke-linecap="round" stroke-linejoin="round"/>
</svg>
