<svg width="472" height="876" viewBox="0 0 472 876" fill="none" xmlns="http://www.w3.org/2000/svg">
<path d="M392.317 769.169C459.931 804.792 525.869 683.821 562.168 617.338C591.449 563.709 749.499 475.237 780.245 416.878C815.353 350.24 779.528 266.404 772.853 217.443C766.436 170.371 699.191 102.338 639.315 70.7929C582.121 40.6602 517.858 141.387 441.872 151.637C355.567 163.279 274.448 202.319 237.827 271.827C198.318 346.819 286.555 442.803 353.313 541.776C402.909 615.307 340.247 741.737 392.317 769.169Z" fill="white" fill-opacity="0.3"/>
<path d="M171.973 265.955C152.347 303.208 164.408 345.74 189.861 391.459C215.314 437.179 254.017 485.853 287.431 535.391C299.895 553.87 305.293 575.653 307.21 598.322C309.128 620.988 307.568 644.58 306.09 666.688C304.61 688.818 303.215 709.436 305.429 726.235C307.643 743.027 313.446 755.874 326.253 762.622C342.999 771.444 359.634 770.579 375.774 763.262C391.935 755.935 407.595 742.137 422.311 725.111C451.743 691.058 477.277 644.245 495.433 610.993C502.801 597.498 518.234 581.862 537.649 565.114C557.077 548.355 580.553 530.435 604.056 512.38C627.566 494.32 651.106 476.124 670.689 458.799C690.284 441.463 705.865 425.042 713.506 410.54C730.986 377.361 730.823 339.871 725.427 304.501C722.729 286.82 718.727 269.686 714.978 253.9C711.232 238.123 707.734 223.675 706.061 211.405C702.874 188.03 684.551 159.35 659.469 132.532C634.405 105.732 602.668 80.8735 572.786 65.1298C558.645 57.68 544.057 58.3026 528.891 63.6374C513.707 68.9784 497.987 79.0283 481.629 90.3769C465.292 101.712 448.319 114.343 430.694 124.769C413.064 135.198 394.733 143.452 375.642 146.027C289.416 157.658 208.487 196.65 171.973 265.955Z" stroke="black"/>
</svg>
