<svg width="546" height="503" viewBox="0 0 546 503" fill="none" xmlns="http://www.w3.org/2000/svg">
<path d="M-187.446 720.369C-152.083 788.119 -29.0554 726.104 38.6091 692.056C93.19 664.592 273.509 681.687 331.985 651.166C398.758 616.313 416.96 526.979 439.31 482.908C460.797 440.538 444.168 346.338 412.853 286.341C382.94 229.032 272.8 275.347 204.466 240.571C126.853 201.071 37.9252 187.059 -31.7228 223.412C-106.865 262.633 -88.8616 391.763 -90.227 511.138C-91.2414 599.826 -214.678 668.195 -187.446 720.369Z" fill="white" fill-opacity="0.3"/>
<path d="M-82.5543 181.134C-119.882 200.618 -134.146 242.463 -139.206 294.545C-144.266 346.627 -140.107 408.673 -140.79 468.423C-141.045 490.711 -148.991 511.699 -160.304 531.437C-171.615 551.172 -186.314 569.692 -200.101 587.037C-213.902 604.4 -226.774 620.566 -234.505 635.645C-242.232 650.716 -244.764 664.584 -238.065 677.417C-229.307 694.197 -215.132 702.944 -197.695 706.103C-180.234 709.265 -159.507 706.82 -137.719 701.182C-94.1455 689.907 -46.5219 665.918 -12.679 648.889C1.05532 641.978 22.6417 637.891 48.1358 635.155C73.6471 632.417 103.148 631.025 132.748 629.538C162.357 628.051 192.067 626.468 218.028 623.352C244.004 620.234 266.159 615.587 280.69 608.002C313.936 590.649 335.12 559.717 350.793 527.554C358.628 511.475 365.079 495.106 370.972 479.988C376.861 464.88 382.199 451.006 387.801 439.961C398.471 418.921 399.707 384.91 394.325 348.588C388.946 312.29 376.975 273.795 361.346 243.852C353.951 229.683 341.597 221.9 326.088 217.664C310.56 213.424 291.914 212.752 272.006 212.786C252.121 212.82 230.977 213.558 210.55 212.113C190.118 210.666 170.345 207.033 153.177 198.295C75.6336 158.832 -13.1099 144.887 -82.5543 181.134Z" stroke="black"/>
</svg>
